<svg xmlns="http://www.w3.org/2000/svg" viewBox="0 0 360 260"><defs><linearGradient id="s" x2="0" y2="1"><stop stop-color="#6bd1eb"/><stop offset="1" stop-color="#dff8fb"/></linearGradient><linearGradient id="w" x2="0" y2="1"><stop stop-color="#25a9ca"/><stop offset="1" stop-color="#075f7b"/></linearGradient></defs><rect width="360" height="260" rx="24" fill="url(#s)"/><path d="M0 158q70-16 140 0t140 0 80 0v102H0z" fill="url(#w)"/><path d="M86 170h198l-29 45H121z" fill="#7a3f2b"/><path d="M102 175h166l-10 14H112z" fill="#c47a45"/><rect x="181" y="43" width="5" height="137" rx="2" fill="#6d4b37"/><path d="M178 50L102 158h76z" fill="#f7f0d8"/><path d="M190 57l72 100h-72z" fill="#fff9e8"/><path d="M173 61l-58 87h58z" fill="#d9e9e8" opacity=".7"/><path d="M195 68l54 80h-54z" fill="#dceceb" opacity=".65"/><path d="M120 216q67 16 133 0" fill="none" stroke="#bdf6ff" stroke-width="5" stroke-linecap="round" opacity=".6"/></svg>